<svg version="1.1" id="Layer_1" xmlns="http://www.w3.org/2000/svg" xmlns:xlink="http://www.w3.org/1999/xlink" x="0px" y="0px"
	 width="100%" viewBox="0 0 1024 1024" enable-background="new 0 0 1024 1024" xml:space="preserve">
<path fill="#000000" opacity="1.000000" stroke="none" 
	d="
M431.460938,358.530701 
	C430.542206,357.152252 429.568878,356.156647 429.870331,354.720642 
	C431.329010,353.224152 433.085602,353.795197 434.666870,353.791748 
	C448.664246,353.761261 462.662445,353.879578 476.658936,353.769348 
	C485.104248,353.702850 491.294464,355.920013 496.405243,363.945679 
	C516.357422,395.277740 537.141113,426.082886 557.822510,456.945343 
	C560.938049,461.594513 561.341675,464.952759 557.614197,469.632019 
	C550.253296,478.872437 543.650452,488.716278 536.718323,498.299133 
	C535.769714,499.610382 535.028198,501.168488 532.723755,501.924744 
	C498.629669,454.558105 464.682922,407.021820 431.460938,358.530701 
z"/>
<path fill="#000000" opacity="1.000000" stroke="none" 
	d="
M563.638916,453.217590 
	C554.823547,439.667816 546.292542,426.348907 537.474548,413.222809 
	C535.251160,409.913055 535.249023,407.706116 537.775085,404.482819 
	C548.043884,391.379730 557.953918,377.996002 568.066895,364.769775 
	C569.652344,362.696320 570.929321,360.245544 573.682312,358.968872 
	C576.757690,361.672668 575.649170,364.182739 573.314880,366.501129 
	C568.620911,371.162994 571.153870,379.535492 575.014771,382.589447 
	C577.580017,384.618500 580.041870,385.134705 582.348999,382.199799 
	C583.171265,381.153809 584.207336,380.248138 584.887024,379.122162 
	C591.235840,368.604218 600.843750,363.246735 612.113159,358.645233 
	C619.233215,355.737976 625.723511,353.634735 633.198792,354.016510 
	C634.320984,354.073792 635.546326,353.698334 636.487854,354.791687 
	C637.041626,356.288635 635.935608,357.271088 635.214111,358.306213 
	C613.222778,389.853516 591.198975,421.378204 569.222168,452.935638 
	C567.524780,455.372955 566.031311,457.092407 563.638916,453.217590 
z"/>
<path fill="#000000" opacity="1.000000" stroke="none" 
	d="
M512.185059,565.957153 
	C512.189636,567.448181 512.307678,568.463196 512.172668,569.443420 
	C511.855927,571.743164 513.391357,574.940430 510.137115,575.953430 
	C507.022308,576.923157 504.047516,576.261414 501.494934,573.637573 
	C495.807922,567.791870 489.882721,562.177734 484.045715,556.478394 
	C483.360321,555.809143 482.619019,555.197266 481.029297,553.778564 
	C481.029297,560.143799 480.968262,565.550720 481.052155,570.955261 
	C481.102661,574.210449 480.462524,576.348267 476.421173,576.331970 
	C472.370758,576.315552 471.800293,574.143921 471.828461,570.906067 
	C471.895142,563.246155 471.750488,555.583801 471.867493,547.925171 
	C471.900177,545.785828 470.752502,542.692566 473.842407,541.933838 
	C476.810883,541.204834 479.955414,540.887451 482.621674,543.698608 
	C488.005554,549.375061 493.662140,554.793457 499.228638,560.295593 
	C500.044159,561.101685 500.982635,561.783325 502.357117,562.935852 
	C503.594971,557.117126 502.865814,551.706543 503.002869,546.362732 
	C503.084717,543.172363 504.012207,541.441711 507.646606,541.536316 
	C510.842407,541.619507 512.194153,542.827637 512.167175,545.981140 
	C512.111694,552.475342 512.171326,558.970581 512.185059,565.957153 
z"/>
<path fill="#000000" opacity="1.000000" stroke="none" 
	d="
M690.233032,558.117859 
	C690.428406,561.522644 688.646118,562.238892 686.141113,562.223267 
	C681.809204,562.196167 677.476624,562.187866 673.145020,562.234680 
	C670.859924,562.259338 668.210632,561.795410 668.146790,565.420837 
	C668.078674,569.289124 670.842346,568.960205 673.351013,568.985291 
	C678.515747,569.036926 683.680969,569.039734 688.845703,569.092102 
	C691.441467,569.118408 693.407654,569.751404 693.299316,573.038818 
	C693.193237,576.253967 691.050171,576.275024 688.808105,576.278198 
	C680.310486,576.290100 671.811279,576.182800 663.315918,576.320984 
	C659.748230,576.378967 658.686157,574.750916 658.732239,571.463318 
	C658.851501,562.967163 658.899353,554.466858 658.758606,545.971802 
	C658.701965,542.551758 660.046448,541.051086 663.405945,541.110229 
	C672.063965,541.262512 680.722595,541.405762 689.381531,541.474060 
	C691.704346,541.492371 693.238403,542.016479 693.237793,544.771484 
	C693.237122,547.796936 691.445312,548.307739 688.987549,548.294067 
	C683.322693,548.262573 677.657166,548.335876 671.992432,548.297302 
	C669.653809,548.281433 668.131653,548.914795 668.162659,551.642639 
	C668.193542,554.362366 669.811646,555.000916 672.079529,555.002380 
	C676.578186,555.005188 681.077881,554.961670 685.575134,555.045593 
	C687.524170,555.081970 689.756958,554.881104 690.233032,558.117859 
z"/>
<path fill="#000000" opacity="1.000000" stroke="none" 
	d="
M648.352539,563.955139 
	C648.296875,572.006531 647.862244,572.734009 640.770203,575.238098 
	C633.258606,577.890320 625.731018,577.834045 618.328125,574.773010 
	C612.147339,572.217224 608.320740,567.788879 607.651794,560.930664 
	C606.915466,553.381104 609.602112,547.582886 616.275574,543.760864 
	C625.073669,538.721924 639.588806,539.622375 646.607666,545.824036 
	C645.252441,549.383057 643.277466,551.060852 639.149170,549.271606 
	C634.272400,547.157837 629.162476,546.864380 624.035339,548.601440 
	C619.517944,550.131836 616.222046,554.249939 616.394165,558.649231 
	C616.588074,563.604919 618.964661,567.172729 623.825134,568.797791 
	C628.053589,570.211548 632.323059,570.229614 636.613403,569.074585 
	C638.843933,568.473999 640.064575,567.139709 639.757568,564.720642 
	C639.416931,562.036133 637.348206,562.448853 635.551453,562.420715 
	C634.719727,562.407654 633.886475,562.499451 633.054382,562.493103 
	C631.290527,562.479614 629.667236,562.304016 629.599243,559.926514 
	C629.537109,557.752502 630.495667,556.178528 632.626648,556.076294 
	C636.942383,555.869202 641.339417,555.536438 645.582153,556.125549 
	C650.118713,556.755554 647.707153,560.890442 648.352539,563.955139 
z"/>
<path fill="#000000" opacity="1.000000" stroke="none" 
	d="
M452.093231,552.947266 
	C456.253876,560.485962 460.827515,567.396912 464.162872,575.030579 
	C457.583191,577.389404 456.165070,576.999146 452.895447,571.546448 
	C451.548370,569.299988 449.974274,568.158203 447.290497,568.305664 
	C444.137177,568.478821 440.946655,568.590515 437.810181,568.307983 
	C433.194733,567.892212 429.923309,569.058960 427.802612,573.647400 
	C425.857483,577.855957 421.969818,576.180176 418.741669,575.781006 
	C417.711487,573.896484 418.850189,572.674133 419.557098,571.431824 
	C424.576874,562.609924 429.575043,553.774536 434.715332,545.022888 
	C437.999298,539.431824 444.356354,539.616760 447.674530,545.276001 
	C449.105316,547.716248 450.504333,550.175049 452.093231,552.947266 
M440.361938,551.783020 
	C438.532837,554.655518 436.564209,557.463745 435.633301,561.109558 
	C439.430725,562.044495 442.728577,562.082764 446.415100,561.071960 
	C445.018585,557.315063 443.921814,553.804932 440.361938,551.783020 
z"/>
<path fill="#000000" opacity="1.000000" stroke="none" 
	d="
M581.502808,541.514587 
	C583.942932,541.200500 585.338745,542.132080 586.349731,543.906128 
	C591.870483,553.594421 597.428223,563.261658 602.923157,572.964600 
	C603.294556,573.620544 603.253174,574.510315 603.448547,575.523254 
	C598.753784,576.820679 594.759155,577.249634 592.554016,571.868286 
	C591.393494,569.036072 589.072388,568.130676 586.079163,568.325256 
	C583.426636,568.497742 580.735840,568.554932 578.093750,568.314026 
	C573.090088,567.857849 569.213745,568.640991 566.853577,574.010864 
	C565.135437,577.919861 561.140259,576.003540 558.072876,575.984192 
	C556.873474,573.670715 558.327332,572.211670 559.179810,570.713440 
	C563.871277,562.467957 568.787292,554.346191 573.305542,546.008179 
	C575.124573,542.651245 577.290527,540.852539 581.502808,541.514587 
M575.916626,558.200256 
	C574.859192,560.009033 574.141418,561.810669 577.361023,561.700378 
	C580.047485,561.608459 582.935120,562.564697 585.593262,560.603271 
	C584.443420,557.059570 583.058350,553.864380 580.161804,550.858215 
	C578.700439,553.364929 577.467896,555.479065 575.916626,558.200256 
z"/>
<path fill="#000000" opacity="1.000000" stroke="none" 
	d="
M407.167938,546.248779 
	C409.108368,539.914856 413.754578,541.638428 417.783539,541.748535 
	C418.936462,543.640076 417.663239,544.847717 417.000275,546.058838 
	C412.211853,554.806519 407.270660,563.471313 402.551483,572.255676 
	C401.046906,575.056335 399.209717,576.381531 395.900116,576.362122 
	C392.673492,576.343140 391.181976,574.721619 389.810333,572.201965 
	C385.440002,564.173828 380.890564,556.243347 376.492004,548.230347 
	C375.484406,546.394714 373.958771,544.717773 374.024658,542.413818 
	C381.571838,540.355042 382.433502,540.720764 385.860657,547.151794 
	C389.054749,553.145569 392.289734,559.117554 396.166473,566.325806 
	C400.096649,559.153870 403.544678,552.861816 407.167938,546.248779 
z"/>
<path fill="#000000" opacity="1.000000" stroke="none" 
	d="
M524.226440,548.278015 
	C521.029480,548.338684 519.777344,546.997803 520.044983,544.274292 
	C520.289490,541.786438 522.133301,541.737793 524.043640,541.551086 
	C534.007263,540.577209 543.967285,541.511719 553.927979,541.498108 
	C556.112366,541.495117 557.366272,542.161255 557.389771,544.607422 
	C557.414062,547.128235 556.348633,548.323975 553.839294,548.244690 
	C553.673584,548.239502 553.506836,548.252136 553.341125,548.263733 
	C543.247192,548.968567 543.248291,548.968628 543.246521,559.381104 
	C543.245789,563.537231 543.124573,567.697266 543.269226,571.848206 
	C543.396057,575.487976 541.487549,576.281982 538.304382,576.324646 
	C534.914062,576.370056 533.965759,574.679199 533.997437,571.710938 
	C534.055847,566.225464 534.040344,560.739075 534.044067,555.253113 
	C534.048706,548.318298 534.041748,548.316284 527.173096,548.291077 
	C526.341858,548.288025 525.510681,548.287964 524.226440,548.278015 
z"/>
<path fill="#000000" opacity="1.000000" stroke="none" 
	d="
M499.934204,594.730713 
	C502.569214,594.987000 505.026855,593.964661 507.001892,596.104980 
	C505.782501,598.967346 503.362732,597.941528 501.439758,598.226807 
	C499.467743,598.519348 497.140869,597.405701 495.327820,599.737610 
	C498.251953,603.054504 503.102936,599.038452 505.765167,602.918518 
	C503.535126,607.417969 498.173370,602.801941 495.302795,606.286621 
	C498.608368,609.898682 504.024933,605.908386 507.058960,609.684387 
	C504.793152,611.847107 494.428802,612.781677 492.209839,611.158325 
	C490.963104,610.246277 490.942291,608.906616 490.916748,607.578125 
	C490.888031,606.084412 490.920074,604.589600 490.922394,603.095276 
	C490.935394,594.765381 490.935059,594.765381 499.934204,594.730713 
z"/>
<path fill="#000000" opacity="1.000000" stroke="none" 
	d="
M475.904907,605.984619 
	C476.802826,607.663147 477.710297,609.030273 478.769836,610.626587 
	C476.357025,612.598938 474.822662,611.363708 473.222778,609.724426 
	C468.590912,604.978638 468.552063,604.991394 464.996063,610.390747 
	C464.464386,611.197998 463.825012,611.516235 462.929474,611.392151 
	C462.018738,611.265930 461.299561,610.717224 461.205841,609.839600 
	C460.728851,605.371582 460.533081,600.892700 461.343750,596.439087 
	C461.420776,596.015808 461.851257,595.578247 462.230255,595.301514 
	C464.473572,593.663208 475.673950,594.884521 477.534332,597.005493 
	C480.638794,600.544678 477.999542,603.070740 475.904907,605.984619 
M467.958069,598.277283 
	C466.480194,598.337280 465.379852,598.834351 465.460724,600.567017 
	C465.530701,602.066895 466.639984,602.448059 467.836700,602.477661 
	C470.247131,602.537354 473.067505,603.436279 474.238525,600.234070 
	C472.689575,597.832397 470.579895,598.414001 467.958069,598.277283 
z"/>
<path fill="#000000" opacity="1.000000" stroke="none" 
	d="
M627.259888,598.421814 
	C624.448608,601.373169 626.796387,601.443848 628.718933,601.395874 
	C631.268127,601.332214 633.916504,600.485535 636.277954,603.046448 
	C633.516174,606.841064 628.656799,603.262634 625.664612,606.348267 
	C629.023132,609.862000 634.406616,605.850403 637.393372,609.728394 
	C634.958679,611.990601 624.361755,612.896851 622.583679,610.974121 
	C620.940308,609.196960 621.695801,606.846741 621.691040,604.758911 
	C621.664978,593.075500 620.633301,594.940430 631.828857,594.754028 
	C633.538208,594.725464 635.520325,594.178162 637.035645,596.359436 
	C634.415955,599.729919 630.639465,597.512939 627.259888,598.421814 
z"/>
<path fill="#000000" opacity="1.000000" stroke="none" 
	d="
M520.532715,605.565857 
	C522.251343,602.481445 523.718811,599.670898 525.381409,596.980957 
	C526.895874,594.530823 529.226196,593.682190 530.987305,596.292725 
	C534.015381,600.781433 536.963257,605.406311 538.731018,610.996826 
	C534.090515,613.110229 532.539612,607.428955 528.292297,607.741577 
	C524.468018,608.023132 522.577271,612.397583 518.676086,611.239868 
	C518.222839,608.913208 519.757141,607.557983 520.532715,605.565857 
z"/>
<path fill="#000000" opacity="1.000000" stroke="none" 
	d="
M437.937561,598.595459 
	C435.065582,600.312927 433.430145,602.453613 435.009613,605.367493 
	C436.658081,608.408508 439.573395,608.807617 442.816101,608.174866 
	C444.771667,607.793213 447.011169,605.374084 448.839417,608.502441 
	C444.553345,613.170288 436.834900,613.303345 432.403870,608.894287 
	C429.056976,605.563965 429.127899,600.582458 432.568085,597.356445 
	C436.885040,593.308289 444.811554,593.544373 448.689575,598.115051 
	C445.222443,600.583618 441.595734,596.840515 437.937561,598.595459 
z"/>
<path fill="#000000" opacity="1.000000" stroke="none" 
	d="
M595.125549,604.784668 
	C593.679626,601.503052 591.339539,598.972656 590.769043,594.887756 
	C597.757874,595.365356 596.593628,602.392517 600.567932,604.947083 
	C604.627625,602.982666 603.268677,595.392822 610.678955,594.885742 
	C608.502808,601.032654 606.022583,606.012329 602.847839,610.558105 
	C601.492859,612.498291 599.234985,612.081787 597.876892,609.961731 
	C596.893005,608.425903 596.156128,606.731750 595.125549,604.784668 
z"/>
<path fill="#000000" opacity="1.000000" stroke="none" 
	d="
M558.073730,599.259155 
	C556.896240,602.316345 557.487915,605.158875 557.292542,607.953613 
	C557.192627,609.382690 557.554382,611.290588 555.409607,611.379517 
	C553.051880,611.477356 553.043091,609.512207 552.966431,607.840271 
	C552.898010,606.350403 552.876892,604.853699 552.933350,603.363770 
	C553.044067,600.442383 552.734497,597.955566 548.828064,598.188843 
	C547.817566,598.249084 546.739624,597.872253 546.677551,596.633606 
	C546.651855,596.121948 547.207458,595.140747 547.549988,595.117065 
	C552.984619,594.742554 558.462219,594.062134 563.962891,595.480835 
	C562.935425,599.344727 559.905945,597.635193 558.073730,599.259155 
z"/>
<path fill="#000000" opacity="1.000000" stroke="none" 
	d="
M575.016479,605.712463 
	C575.103699,602.613708 575.117371,599.965149 575.296692,597.327759 
	C575.377991,596.131531 575.897888,595.006409 577.410461,595.084473 
	C578.922302,595.162476 579.251465,596.305847 579.273682,597.529297 
	C579.333801,600.837097 579.401733,604.147400 579.330566,607.453857 
	C579.297607,608.986084 579.829956,611.164978 577.346436,611.256714 
	C574.933472,611.345825 575.179199,609.262085 575.027466,607.655518 
	C574.980957,607.163208 575.013977,606.663513 575.016479,605.712463 
z"/>
</svg>